<?xml version="1.0" standalone="no"?>
<!DOCTYPE svg PUBLIC "-//W3C//DTD SVG 20010904//EN"
 "http://www.w3.org/TR/2001/REC-SVG-20010904/DTD/svg10.dtd">
<svg version="1.0" xmlns="http://www.w3.org/2000/svg"
 width="236.000000pt" height="244.000000pt" viewBox="0 0 236.000000 244.000000"
 preserveAspectRatio="xMidYMid meet">

<g transform="translate(0.000000,244.000000) scale(0.100000,-0.100000)"
fill="#000000" stroke="none">
<path d="M1790 1743 c-63 -25 -185 -63 -270 -85 -85 -21 -207 -56 -270 -78
-118 -39 -287 -78 -465 -106 -55 -8 -154 -26 -220 -40 -66 -13 -135 -24 -152
-24 -37 0 -39 -6 -34 -105 4 -86 21 -138 63 -203 80 -124 177 -195 304 -223
62 -14 171 6 253 47 102 51 184 182 199 319 l7 60 23 -39 c12 -21 52 -76 88
-122 57 -73 74 -88 137 -119 100 -48 191 -61 283 -40 98 23 134 50 172 129 18
37 32 73 32 80 0 7 9 39 20 71 29 84 35 219 16 344 -22 144 -33 181 -54 181
-9 -1 -69 -21 -132 -47z m75 -72 c0 -8 -16 -19 -35 -26 -24 -8 -36 -19 -38
-34 -5 -33 11 -45 38 -31 27 15 48 -1 52 -40 3 -21 -2 -26 -24 -28 -32 -4 -36
-24 -14 -77 11 -26 19 -32 34 -28 14 3 24 -2 31 -16 10 -17 8 -26 -11 -51 -12
-16 -25 -30 -28 -30 -5 0 -50 120 -127 337 -3 7 16 18 44 26 56 18 78 17 78
-2z m-184 -111 c29 -48 38 -112 24 -176 -6 -29 -3 -34 54 -78 68 -53 86 -78
73 -102 -7 -13 -20 -6 -76 46 -36 35 -69 60 -72 57 -3 -3 13 -48 36 -101 40
-89 46 -133 19 -124 -6 2 -40 85 -74 183 -34 99 -74 209 -88 244 -15 36 -27
66 -27 68 0 9 66 32 84 30 11 -1 32 -22 47 -47z m-163 -136 c29 -71 73 -175
98 -232 48 -113 51 -122 30 -122 -8 0 -26 25 -40 55 -21 46 -29 55 -50 55 -31
0 -31 -1 -6 -50 24 -48 25 -52 3 -48 -10 2 -21 21 -29 53 -7 28 -25 93 -39
145 -61 223 -68 289 -30 277 5 -2 34 -62 63 -133z m-175 64 c26 -14 20 -47
-15 -80 l-33 -31 74 -69 c51 -48 71 -72 62 -77 -8 -5 -33 14 -71 53 -32 33
-62 58 -66 54 -3 -4 1 -25 10 -48 20 -51 21 -69 2 -50 -8 8 -28 62 -44 120
-17 58 -33 113 -37 122 -5 13 0 17 22 21 32 4 70 -2 96 -15z m-255 -40 c2 -11
-3 -18 -12 -18 -42 0 15 -109 64 -125 16 -5 20 -15 20 -53 0 -48 -13 -82 -26
-69 -4 4 -2 19 5 33 17 37 5 61 -38 84 -28 14 -43 31 -55 60 -17 42 -21 92 -9
104 13 13 48 1 51 -16z m-174 -35 c21 -84 28 -103 37 -97 6 3 9 31 8 62 -2 36
1 57 9 60 11 3 18 -77 13 -148 -1 -20 9 -34 44 -60 41 -31 45 -37 45 -77 0
-24 -3 -43 -7 -42 -5 0 -22 21 -38 46 -50 77 -70 67 -40 -20 21 -63 24 -112 5
-112 -11 0 -19 19 -27 65 -7 36 -24 115 -37 175 -37 163 -39 175 -28 175 5 0
13 -12 16 -27z m-64 -56 c21 -48 47 -183 57 -294 6 -73 6 -73 -19 -73 -14 0
-30 6 -35 13 -13 16 -53 175 -52 207 0 23 21 -37 45 -129 12 -46 34 -53 34
-11 0 47 -29 230 -42 263 -19 50 -38 33 -39 -35 l-1 -63 -10 48 c-23 107 23
162 62 74z m345 34 c-15 -15 -65 -25 -65 -13 0 13 17 20 50 21 15 1 20 -3 15
-8z m-518 -45 c7 -6 33 -61 58 -122 50 -125 72 -257 44 -275 -51 -32 -84 8
-123 151 -60 223 -63 279 -13 264 12 -3 28 -11 34 -18z m-182 -94 c22 -102 34
-124 71 -134 23 -6 34 -16 38 -34 4 -15 5 -29 2 -32 -3 -3 -27 6 -53 19 l-48
25 -27 109 c-15 61 -25 116 -23 123 10 27 24 0 40 -76z"/>
<path d="M1604 1547 c-6 -16 40 -140 54 -145 16 -5 20 89 6 126 -13 33 -50 45
-60 19z"/>
<path d="M1460 1463 c0 -10 13 -70 29 -133 27 -109 30 -115 52 -112 13 2 26 6
28 8 2 2 -6 30 -19 61 -13 32 -33 87 -45 122 -21 63 -45 92 -45 54z"/>
<path d="M1263 1450 c7 -55 13 -59 45 -27 21 22 25 31 16 45 -6 9 -24 18 -39
20 -27 4 -28 3 -22 -38z"/>
<path d="M636 1312 c-4 -10 10 -81 30 -158 43 -168 58 -193 82 -139 9 19 8 34
-4 67 -8 24 -26 84 -40 133 -25 88 -38 115 -55 115 -4 0 -10 -8 -13 -18z"/>
</g>
</svg>
